<svg width="540" height="99" viewBox="0 0 540 99" fill="none" xmlns="http://www.w3.org/2000/svg">
<path fill-rule="evenodd" clip-rule="evenodd" d="M228.082 16.9995H57.5C40.6553 16.9995 27 30.6548 27 47.4995C27 64.3442 40.6553 77.9995 57.5 77.9995H228.082V76.9995H57.5C41.2076 76.9995 28 63.7919 28 47.4995C28 31.2071 41.2076 17.9995 57.5 17.9995H228.082V16.9995ZM313.531 76.9995H482.5C498.792 76.9995 512 63.7919 512 47.4995C512 31.2071 498.792 17.9995 482.5 17.9995H313.531V16.9995H482.5C499.345 16.9995 513 30.6548 513 47.4995C513 64.3442 499.345 77.9995 482.5 77.9995H313.531V76.9995Z" fill="white"/>
<rect y="25.9995" width="540" height="55" rx="27.5" fill="white"/>
<path d="M184.565 45.2835C183.381 45.2835 182.349 45.4995 181.469 45.9315C180.605 46.3475 179.885 46.8995 179.309 47.5875C178.733 48.2595 178.301 49.0195 178.013 49.8675C177.741 50.7155 177.605 51.5555 177.605 52.3875C177.605 53.3315 177.789 54.2595 178.157 55.1715C178.525 56.0675 179.029 56.8675 179.669 57.5715C180.325 58.2595 181.085 58.8195 181.949 59.2515C182.813 59.6675 183.749 59.8755 184.757 59.8755C185.045 59.8755 185.381 59.8435 185.765 59.7795C186.165 59.7155 186.557 59.5955 186.941 59.4195C187.325 59.2275 187.677 58.9635 187.997 58.6275C188.333 58.2915 188.589 57.8515 188.765 57.3075H189.005V59.9715C188.765 59.9715 188.509 60.0035 188.237 60.0675C187.981 60.1315 187.693 60.2035 187.373 60.2835C186.957 60.3955 186.493 60.4995 185.981 60.5955C185.485 60.6915 184.957 60.7395 184.397 60.7395C183.005 60.7395 181.781 60.4995 180.725 60.0195C179.669 59.5395 178.789 58.9155 178.085 58.1475C177.381 57.3795 176.853 56.5155 176.501 55.5555C176.149 54.5795 175.973 53.5955 175.973 52.6035C175.973 51.6115 176.149 50.6275 176.501 49.6515C176.853 48.6755 177.389 47.8035 178.109 47.0355C178.829 46.2515 179.733 45.6195 180.821 45.1395C181.909 44.6595 183.189 44.4195 184.661 44.4195C185.189 44.4195 185.661 44.4675 186.077 44.5635C186.509 44.6595 186.893 44.7555 187.229 44.8515C187.469 44.9315 187.685 44.9955 187.877 45.0435C188.085 45.0755 188.285 45.0915 188.477 45.0915V47.7555H188.237C188.141 47.2595 187.965 46.8515 187.709 46.5315C187.453 46.1955 187.149 45.9395 186.797 45.7635C186.461 45.5875 186.093 45.4675 185.693 45.4035C185.309 45.3235 184.933 45.2835 184.565 45.2835ZM199.04 44.4195C200.288 44.4195 201.408 44.6435 202.4 45.0915C203.392 45.5235 204.232 46.1155 204.92 46.8675C205.624 47.6035 206.16 48.4675 206.528 49.4595C206.912 50.4355 207.104 51.4595 207.104 52.5315C207.104 53.7315 206.88 54.8355 206.432 55.8435C206 56.8515 205.4 57.7155 204.632 58.4355C203.864 59.1555 202.968 59.7235 201.944 60.1395C200.936 60.5395 199.856 60.7395 198.704 60.7395C197.472 60.7395 196.36 60.5155 195.368 60.0675C194.392 59.6195 193.56 59.0275 192.872 58.2915C192.2 57.5555 191.68 56.7075 191.312 55.7475C190.944 54.7875 190.76 53.7875 190.76 52.7475C190.76 51.7235 190.944 50.7155 191.312 49.7235C191.68 48.7155 192.216 47.8195 192.92 47.0355C193.64 46.2515 194.512 45.6195 195.536 45.1395C196.56 44.6595 197.728 44.4195 199.04 44.4195ZM199.016 59.8995C200.088 59.8515 201.024 59.6115 201.824 59.1795C202.64 58.7315 203.32 58.1715 203.864 57.4995C204.408 56.8115 204.808 56.0595 205.064 55.2435C205.336 54.4275 205.472 53.6195 205.472 52.8195C205.472 51.9395 205.312 51.0515 204.992 50.1555C204.672 49.2595 204.216 48.4515 203.624 47.7315C203.032 46.9955 202.32 46.4035 201.488 45.9555C200.672 45.4915 199.752 45.2595 198.728 45.2595C197.736 45.2595 196.848 45.4835 196.064 45.9315C195.28 46.3635 194.608 46.9235 194.048 47.6115C193.504 48.2995 193.088 49.0675 192.8 49.9155C192.512 50.7635 192.368 51.5955 192.368 52.4115C192.368 53.2915 192.536 54.1795 192.872 55.0755C193.208 55.9555 193.672 56.7555 194.264 57.4755C194.856 58.1955 195.552 58.7795 196.352 59.2275C197.168 59.6755 198.056 59.8995 199.016 59.8995ZM209.463 45.0915H209.679C209.807 45.0915 209.951 45.0755 210.111 45.0435C210.271 44.9955 210.439 44.9395 210.615 44.8755C210.919 44.7795 211.279 44.6835 211.695 44.5875C212.111 44.4755 212.615 44.4195 213.207 44.4195C213.959 44.4195 214.623 44.5235 215.199 44.7315C215.791 44.9395 216.287 45.2195 216.687 45.5715C217.103 45.9235 217.415 46.3315 217.623 46.7955C217.831 47.2595 217.935 47.7555 217.935 48.2835C217.935 49.0355 217.719 49.7075 217.287 50.2995C216.871 50.8755 216.279 51.3635 215.511 51.7635C216.599 52.2435 217.391 52.8595 217.887 53.6115C218.399 54.3475 218.655 55.1475 218.655 56.0115C218.655 56.6355 218.519 57.2355 218.247 57.8115C217.991 58.3875 217.615 58.8915 217.119 59.3235C216.623 59.7555 216.015 60.0995 215.295 60.3555C214.575 60.6115 213.751 60.7395 212.823 60.7395C212.151 60.7395 211.607 60.6835 211.191 60.5715C210.775 60.4595 210.415 60.3395 210.111 60.2115C209.919 60.1315 209.735 60.0675 209.559 60.0195C209.399 59.9715 209.231 59.9475 209.055 59.9475H208.839V57.2835H209.079C209.223 57.7315 209.415 58.1235 209.655 58.4595C209.911 58.7795 210.199 59.0435 210.519 59.2515C210.839 59.4595 211.183 59.6195 211.551 59.7315C211.919 59.8275 212.295 59.8755 212.679 59.8755C213.175 59.8755 213.663 59.7955 214.143 59.6355C214.639 59.4595 215.071 59.2195 215.439 58.9155C215.823 58.6115 216.127 58.2435 216.351 57.8115C216.591 57.3635 216.711 56.8675 216.711 56.3235C216.711 55.7795 216.607 55.2595 216.399 54.7635C216.191 54.2515 215.895 53.8115 215.511 53.4435C215.143 53.0755 214.703 52.7795 214.191 52.5555C213.679 52.3315 213.119 52.2195 212.511 52.2195H211.647V51.4035H212.631C213.111 51.4035 213.567 51.3395 213.999 51.2115C214.431 51.0675 214.807 50.8675 215.127 50.6115C215.463 50.3395 215.727 50.0195 215.919 49.6515C216.111 49.2835 216.207 48.8595 216.207 48.3795C216.207 47.8995 216.111 47.4675 215.919 47.0835C215.727 46.6995 215.471 46.3795 215.151 46.1235C214.847 45.8515 214.495 45.6435 214.095 45.4995C213.711 45.3555 213.311 45.2835 212.895 45.2835C212.559 45.2835 212.231 45.3315 211.911 45.4275C211.591 45.5235 211.287 45.6755 210.999 45.8835C210.711 46.0915 210.455 46.3475 210.231 46.6515C210.007 46.9555 209.831 47.3235 209.703 47.7555H209.463V45.0915ZM236.484 59.6595V62.6595H236.244C236.228 62.4515 236.172 62.2195 236.076 61.9635C235.98 61.7075 235.844 61.4675 235.668 61.2435C235.508 61.0355 235.316 60.8595 235.092 60.7155C234.868 60.5715 234.62 60.4995 234.348 60.4995H223.284C223.012 60.4995 222.764 60.5715 222.54 60.7155C222.316 60.8755 222.116 61.0595 221.94 61.2675C221.78 61.4915 221.644 61.7315 221.532 61.9875C221.436 62.2435 221.38 62.4675 221.364 62.6595H221.124V59.6595H222.18C222.692 59.6595 223.052 59.3635 223.26 58.7715L228.78 44.2995L234.348 58.6995C234.46 58.9395 234.612 59.1635 234.804 59.3715C234.996 59.5635 235.22 59.6595 235.476 59.6595H236.484ZM223.788 59.6595H233.028L228.396 47.7315L223.788 59.6595ZM248.563 60.2595H248.683C249.067 60.2595 249.259 60.0835 249.259 59.7315C249.259 59.6035 249.235 59.4675 249.187 59.3235L247.027 53.4915H242.827L240.739 59.2275C240.691 59.3555 240.667 59.4755 240.667 59.5875C240.667 59.7955 240.723 59.9635 240.835 60.0915C240.947 60.2035 241.067 60.2595 241.195 60.2595H241.315V60.4995H238.651V60.2595H238.771C238.979 60.2595 239.179 60.1395 239.371 59.8995C239.579 59.6435 239.747 59.3475 239.875 59.0115L245.371 44.3715L250.747 58.8675C250.859 59.1875 251.011 59.4995 251.203 59.8035C251.411 60.1075 251.675 60.2595 251.995 60.2595H252.115V60.4995H248.563V60.2595ZM243.067 52.6755H246.763L244.915 47.6595L243.067 52.6755ZM258.357 60.2595H258.477V60.4995H255.069V60.2595H255.189C255.317 60.2595 255.429 60.2115 255.525 60.1155C255.621 60.0195 255.701 59.9075 255.765 59.7795C255.845 59.6515 255.901 59.5155 255.933 59.3715C255.965 59.2115 255.981 59.0675 255.981 58.9395V45.5475H253.197C252.941 45.5475 252.717 45.6035 252.525 45.7155C252.333 45.8275 252.173 45.9715 252.045 46.1475C251.917 46.3075 251.821 46.4915 251.757 46.6995C251.693 46.8915 251.661 47.0835 251.661 47.2755H251.421V44.6595H262.197V47.2755H261.957C261.957 47.0835 261.925 46.8915 261.861 46.6995C261.797 46.4915 261.701 46.3075 261.573 46.1475C261.445 45.9715 261.285 45.8275 261.093 45.7155C260.901 45.6035 260.677 45.5475 260.421 45.5475H257.589V58.9395C257.589 59.0675 257.605 59.2115 257.637 59.3715C257.669 59.5155 257.717 59.6515 257.781 59.7795C257.861 59.9075 257.941 60.0195 258.021 60.1155C258.117 60.2115 258.229 60.2595 258.357 60.2595ZM264.471 60.2595H264.591C264.703 60.2595 264.807 60.2195 264.903 60.1395C264.999 60.0435 265.079 59.9315 265.143 59.8035C265.207 59.6755 265.255 59.5395 265.287 59.3955C265.335 59.2515 265.359 59.1235 265.359 59.0115V46.2195C265.359 46.1075 265.343 45.9715 265.311 45.8115C265.279 45.6515 265.223 45.5075 265.143 45.3795C265.079 45.2515 264.999 45.1395 264.903 45.0435C264.807 44.9475 264.703 44.8995 264.591 44.8995H264.471V44.6595H267.855V44.8995H267.687C267.463 44.9315 267.287 45.1075 267.159 45.4275C267.031 45.7315 266.967 45.9955 266.967 46.2195V51.3795H268.311C269.047 51.3795 269.767 51.4595 270.471 51.6195C271.191 51.7635 271.823 52.0195 272.367 52.3875C272.927 52.7395 273.375 53.2115 273.711 53.8035C274.047 54.3795 274.215 55.0995 274.215 55.9635C274.215 56.6675 274.071 57.2995 273.783 57.8595C273.495 58.4195 273.103 58.8995 272.607 59.2995C272.111 59.6835 271.519 59.9795 270.831 60.1875C270.159 60.3955 269.431 60.4995 268.647 60.4995H264.471V60.2595ZM267.327 59.6595C269.183 59.6595 270.511 59.3395 271.311 58.6995C272.127 58.0595 272.535 57.1795 272.535 56.0595C272.535 54.9235 272.127 53.9955 271.311 53.2755C270.511 52.5555 269.327 52.1955 267.759 52.1955H266.967V59.6595H267.327ZM284.152 45.0915H284.368C284.496 45.0915 284.64 45.0755 284.8 45.0435C284.96 44.9955 285.128 44.9395 285.304 44.8755C285.608 44.7795 285.968 44.6835 286.384 44.5875C286.8 44.4755 287.304 44.4195 287.896 44.4195C288.648 44.4195 289.312 44.5235 289.888 44.7315C290.48 44.9395 290.976 45.2195 291.376 45.5715C291.792 45.9235 292.104 46.3315 292.312 46.7955C292.52 47.2595 292.624 47.7555 292.624 48.2835C292.624 49.0355 292.408 49.7075 291.976 50.2995C291.56 50.8755 290.968 51.3635 290.2 51.7635C291.288 52.2435 292.08 52.8595 292.576 53.6115C293.088 54.3475 293.344 55.1475 293.344 56.0115C293.344 56.6355 293.208 57.2355 292.936 57.8115C292.68 58.3875 292.304 58.8915 291.808 59.3235C291.312 59.7555 290.704 60.0995 289.984 60.3555C289.264 60.6115 288.44 60.7395 287.512 60.7395C286.84 60.7395 286.296 60.6835 285.88 60.5715C285.464 60.4595 285.104 60.3395 284.8 60.2115C284.608 60.1315 284.424 60.0675 284.248 60.0195C284.088 59.9715 283.92 59.9475 283.744 59.9475H283.528V57.2835H283.768C283.912 57.7315 284.104 58.1235 284.344 58.4595C284.6 58.7795 284.888 59.0435 285.208 59.2515C285.528 59.4595 285.872 59.6195 286.24 59.7315C286.608 59.8275 286.984 59.8755 287.368 59.8755C287.864 59.8755 288.352 59.7955 288.832 59.6355C289.328 59.4595 289.76 59.2195 290.128 58.9155C290.512 58.6115 290.816 58.2435 291.04 57.8115C291.28 57.3635 291.4 56.8675 291.4 56.3235C291.4 55.7795 291.296 55.2595 291.088 54.7635C290.88 54.2515 290.584 53.8115 290.2 53.4435C289.832 53.0755 289.392 52.7795 288.88 52.5555C288.368 52.3315 287.808 52.2195 287.2 52.2195H286.336V51.4035H287.32C287.8 51.4035 288.256 51.3395 288.688 51.2115C289.12 51.0675 289.496 50.8675 289.816 50.6115C290.152 50.3395 290.416 50.0195 290.608 49.6515C290.8 49.2835 290.896 48.8595 290.896 48.3795C290.896 47.8995 290.8 47.4675 290.608 47.0835C290.416 46.6995 290.16 46.3795 289.84 46.1235C289.536 45.8515 289.184 45.6435 288.784 45.4995C288.4 45.3555 288 45.2835 287.584 45.2835C287.248 45.2835 286.92 45.3315 286.6 45.4275C286.28 45.5235 285.976 45.6755 285.688 45.8835C285.4 46.0915 285.144 46.3475 284.92 46.6515C284.696 46.9555 284.52 47.3235 284.392 47.7555H284.152V45.0915ZM305.582 60.2595H305.702C306.086 60.2595 306.278 60.0835 306.278 59.7315C306.278 59.6035 306.254 59.4675 306.206 59.3235L304.046 53.4915H299.846L297.758 59.2275C297.71 59.3555 297.686 59.4755 297.686 59.5875C297.686 59.7955 297.742 59.9635 297.854 60.0915C297.966 60.2035 298.086 60.2595 298.214 60.2595H298.334V60.4995H295.67V60.2595H295.79C295.998 60.2595 296.198 60.1395 296.39 59.8995C296.598 59.6435 296.766 59.3475 296.894 59.0115L302.39 44.3715L307.766 58.8675C307.878 59.1875 308.03 59.4995 308.222 59.8035C308.43 60.1075 308.694 60.2595 309.014 60.2595H309.134V60.4995H305.582V60.2595ZM300.086 52.6755H303.782L301.934 47.6595L300.086 52.6755ZM319.282 60.2595H319.402C319.514 60.2595 319.618 60.2115 319.714 60.1155C319.826 60.0195 319.914 59.9075 319.978 59.7795C320.042 59.6515 320.09 59.5155 320.122 59.3715C320.17 59.2115 320.194 59.0675 320.194 58.9395V52.4355C319.842 52.4675 319.506 52.5795 319.186 52.7715C318.882 52.9635 318.586 53.2195 318.298 53.5395C318.026 53.8595 317.762 54.2195 317.506 54.6195C317.266 55.0195 317.034 55.4355 316.81 55.8675C316.634 56.1875 316.442 56.5315 316.234 56.8995C316.026 57.2515 315.818 57.6115 315.61 57.9795C315.226 58.6835 314.722 59.2835 314.098 59.7795C313.474 60.2595 312.754 60.4995 311.938 60.4995H310.666V60.2595C311.034 60.2595 311.378 60.1795 311.698 60.0195C312.034 59.8595 312.338 59.6595 312.61 59.4195C312.882 59.1795 313.122 58.9155 313.33 58.6275C313.554 58.3395 313.738 58.0675 313.882 57.8115L315.778 54.4035C316.002 54.0195 316.242 53.6515 316.498 53.2995C316.77 52.9315 317.178 52.6355 317.722 52.4115C317.05 52.3635 316.45 52.2355 315.922 52.0275C315.394 51.8195 314.946 51.5475 314.578 51.2115C314.21 50.8755 313.93 50.4995 313.738 50.0835C313.546 49.6515 313.45 49.2035 313.45 48.7395C313.45 48.1475 313.586 47.6035 313.858 47.1075C314.13 46.5955 314.514 46.1635 315.01 45.8115C315.506 45.4435 316.106 45.1635 316.81 44.9715C317.53 44.7635 318.33 44.6595 319.21 44.6595H322.666V44.8995H322.546C322.434 44.8995 322.33 44.9475 322.234 45.0435C322.138 45.1235 322.058 45.2275 321.994 45.3555C321.93 45.4835 321.882 45.6195 321.85 45.7635C321.818 45.9075 321.802 46.0355 321.802 46.1475V58.9395C321.802 59.0675 321.818 59.2115 321.85 59.3715C321.882 59.5155 321.93 59.6515 321.994 59.7795C322.058 59.9075 322.138 60.0195 322.234 60.1155C322.33 60.2115 322.434 60.2595 322.546 60.2595H322.666V60.4995H319.282V60.2595ZM314.962 48.3795C314.962 48.8435 315.058 49.2755 315.25 49.6755C315.442 50.0595 315.706 50.3955 316.042 50.6835C316.378 50.9715 316.77 51.1955 317.218 51.3555C317.666 51.5155 318.154 51.5955 318.682 51.5955H320.194V45.4755H319.834C318.282 45.4755 317.082 45.7315 316.234 46.2435C315.386 46.7555 314.962 47.4675 314.962 48.3795ZM325.896 60.2595H326.016C326.128 60.2595 326.232 60.2115 326.328 60.1155C326.424 60.0195 326.504 59.9075 326.568 59.7795C326.648 59.6515 326.704 59.5155 326.736 59.3715C326.768 59.2115 326.784 59.0675 326.784 58.9395V46.1715C326.784 46.0595 326.768 45.9315 326.736 45.7875C326.704 45.6435 326.648 45.5075 326.568 45.3795C326.504 45.2355 326.416 45.1235 326.304 45.0435C326.208 44.9475 326.096 44.8995 325.968 44.8995H325.848V44.6595H329.784C331.272 44.6595 332.432 44.9875 333.264 45.6435C334.112 46.2995 334.536 47.1715 334.536 48.2595C334.536 48.7235 334.456 49.1395 334.296 49.5075C334.136 49.8755 333.928 50.2035 333.672 50.4915C333.432 50.7795 333.168 51.0275 332.88 51.2355C332.592 51.4275 332.32 51.5875 332.064 51.7155C332.736 51.8435 333.296 52.0595 333.744 52.3635C334.192 52.6675 334.552 53.0195 334.824 53.4195C335.112 53.8035 335.312 54.2195 335.424 54.6675C335.536 55.1155 335.592 55.5555 335.592 55.9875C335.592 56.8195 335.44 57.5235 335.136 58.0995C334.832 58.6595 334.424 59.1235 333.912 59.4915C333.416 59.8435 332.84 60.0995 332.184 60.2595C331.544 60.4195 330.88 60.4995 330.192 60.4995H325.896V60.2595ZM333.96 56.1315C333.832 54.8995 333.416 53.9475 332.712 53.2755C332.008 52.6035 331.016 52.2675 329.736 52.2675H328.392V59.7075H329.784C331.08 59.7075 332.096 59.4195 332.832 58.8435C333.584 58.2515 333.96 57.4355 333.96 56.3955V56.1315ZM332.976 48.4755C332.928 47.5475 332.6 46.8115 331.992 46.2675C331.4 45.7235 330.6 45.4515 329.592 45.4515H328.392V51.4995H329.64C330.312 51.4995 330.856 51.4115 331.272 51.2355C331.704 51.0595 332.048 50.8355 332.304 50.5635C332.56 50.2755 332.736 49.9635 332.832 49.6275C332.928 49.2915 332.976 48.9635 332.976 48.6435V48.4755ZM338.598 60.2595H338.718C338.846 60.2595 338.958 60.2115 339.054 60.1155C339.15 60.0195 339.23 59.9075 339.294 59.7795C339.374 59.6515 339.43 59.5155 339.462 59.3715C339.494 59.2115 339.51 59.0675 339.51 58.9395V46.1475C339.51 46.0355 339.494 45.9075 339.462 45.7635C339.43 45.6195 339.374 45.4835 339.294 45.3555C339.23 45.2275 339.15 45.1235 339.054 45.0435C338.958 44.9475 338.854 44.8995 338.742 44.8995H338.622V44.6595H342.03V44.8995H341.91C341.782 44.8995 341.67 44.9475 341.574 45.0435C341.478 45.1235 341.39 45.2275 341.31 45.3555C341.246 45.4835 341.19 45.6195 341.142 45.7635C341.11 45.9075 341.094 46.0355 341.094 46.1475V51.1155L346.662 45.5715C346.79 45.4435 346.854 45.2915 346.854 45.1155C346.854 44.9715 346.79 44.8995 346.662 44.8995V44.6595H349.254V44.8995C348.934 44.9155 348.646 45.0115 348.39 45.1875C348.15 45.3635 347.886 45.5955 347.598 45.8835L341.91 51.5715C342.95 51.6035 343.79 51.8275 344.43 52.2435C345.07 52.6595 345.574 53.2355 345.942 53.9715L347.838 57.8115C347.95 58.0515 348.094 58.3155 348.27 58.6035C348.462 58.8755 348.67 59.1395 348.894 59.3955C349.134 59.6355 349.398 59.8435 349.686 60.0195C349.974 60.1795 350.278 60.2595 350.598 60.2595V60.4995H349.398C348.934 60.4995 348.534 60.4355 348.198 60.3075C347.862 60.1635 347.566 59.9795 347.31 59.7555C347.07 59.5155 346.854 59.2515 346.662 58.9635C346.486 58.6755 346.326 58.3875 346.182 58.0995L344.238 54.2355C343.934 53.6435 343.51 53.1955 342.966 52.8915C342.438 52.5715 341.814 52.3955 341.094 52.3635V58.9395C341.094 59.0675 341.11 59.2035 341.142 59.3475C341.174 59.4915 341.222 59.6355 341.286 59.7795C341.35 59.9075 341.43 60.0195 341.526 60.1155C341.622 60.1955 341.726 60.2435 341.838 60.2595H342.006V60.4995H338.598V60.2595ZM352.076 44.6595H355.412V44.8995H355.268C355.092 44.8995 354.972 44.9555 354.908 45.0675C354.844 45.1635 354.812 45.2675 354.812 45.3795C354.812 45.4595 354.82 45.5315 354.836 45.5955C354.852 45.6595 354.868 45.7075 354.884 45.7395L358.988 54.7155L362.66 46.0035C362.676 45.9715 362.7 45.9075 362.732 45.8115C362.764 45.6995 362.78 45.5955 362.78 45.4995C362.78 45.2755 362.7 45.1235 362.54 45.0435C362.38 44.9475 362.26 44.8995 362.18 44.8995V44.6595H364.748V44.8995C364.46 44.8995 364.236 44.9795 364.076 45.1395C363.932 45.2835 363.82 45.4355 363.74 45.5955L357.98 59.3715C357.788 59.8355 357.532 60.1795 357.212 60.4035C356.892 60.6115 356.548 60.7155 356.18 60.7155C355.94 60.7155 355.724 60.6755 355.532 60.5955C355.34 60.5315 355.172 60.4515 355.028 60.3555C354.884 60.2595 354.772 60.1715 354.692 60.0915C354.628 60.0115 354.596 59.9715 354.596 59.9715L355.196 58.6515C355.324 58.9555 355.492 59.1955 355.7 59.3715C355.908 59.5315 356.124 59.6115 356.348 59.6115C356.492 59.6115 356.636 59.5635 356.78 59.4675C356.94 59.3555 357.076 59.1875 357.188 58.9635L358.124 56.6835L353.132 45.6675C352.908 45.1875 352.556 44.9315 352.076 44.8995V44.6595Z" fill="black"/>
<path d="M269.267 -0.000488281L266.885 4.51351L264.58 9.02752C266.232 12.1969 267.692 14.9437 269.325 18.0555L274.069 9.02752L271.63 4.51351L269.267 -0.000488281Z" fill="white"/>
<path d="M293.438 15.3858L293.207 15.2513L292.977 15.0977L292.727 14.9632L292.497 14.8095L292.247 14.6751L292.016 14.5406L291.786 14.4062L291.536 14.2717L291.287 14.1372L291.056 14.022L290.806 13.8875L290.557 13.7531L290.326 13.6186L290.076 13.5034L289.827 13.3689L289.577 13.2536L289.327 13.1384L289.078 13.0231L288.828 12.8887L288.693 12.8311L286.484 17.6524L286.58 17.6908L286.811 17.7869L287.022 17.9021L287.253 18.0174L287.464 18.1134L287.675 18.2286L287.906 18.3439L288.117 18.4592L288.328 18.5552L288.54 18.6704L288.77 18.8049L288.981 18.9202L289.193 19.0354L289.404 19.1507L289.615 19.2659L289.827 19.4004L290.038 19.5156L290.249 19.6309L290.461 19.7653L290.672 19.8998L290.864 20.015L293.63 15.501L293.438 15.3858Z" fill="white"/>
<path d="M283.119 10.6794L282.85 10.6025L282.581 10.5257L282.312 10.4297L282.043 10.3528L281.774 10.2952L281.486 10.2184L281.217 10.1415L280.948 10.0647L280.68 10.0071L280.391 9.93025L280.123 9.85342L279.854 9.79579L279.565 9.73817L279.297 9.68054L279.008 9.60371L278.739 9.54608L278.451 9.50766L278.182 9.45004L278.029 9.41162L277.068 14.6171L277.184 14.6363L277.433 14.694L277.683 14.7324L277.914 14.79L278.163 14.8476L278.413 14.9053L278.663 14.9629L278.893 15.0205L279.143 15.0589L279.393 15.1358L279.623 15.1934L279.873 15.251L280.123 15.3278L280.353 15.3855L280.584 15.4431L280.833 15.5199L281.064 15.5968L281.313 15.6544L281.544 15.7312L281.794 15.8081L281.89 15.8465L283.484 10.7946L283.388 10.7754L283.119 10.6794Z" fill="white"/>
<path d="M260.504 9.39225L260.216 9.44988L259.928 9.50751L259.659 9.54592L259.371 9.60355L259.102 9.68038L258.814 9.73801L258.545 9.79563L258.257 9.85326L257.988 9.93009L257.719 10.0069L257.45 10.0646L257.162 10.1414L256.893 10.2182L256.624 10.2951L256.355 10.3527L256.086 10.4295L255.817 10.5256L255.529 10.6024L255.279 10.6792L255.164 10.7176L256.758 15.7695L256.835 15.7311L257.085 15.6542L257.315 15.5966L257.546 15.5198L257.796 15.4429L258.045 15.3853L258.276 15.3277L258.526 15.2509L258.756 15.1932L259.006 15.1356L259.236 15.0588L259.486 15.0204L259.736 14.9627L259.985 14.9051L260.216 14.8475L260.466 14.7898L260.715 14.7322L260.965 14.6938L261.215 14.6362L261.445 14.5978L261.58 14.5786L260.619 9.37305L260.504 9.39225Z" fill="white"/>
<path d="M249.841 12.7733L249.591 12.8885L249.341 13.023L249.091 13.1382L248.842 13.2535L248.592 13.3687L248.342 13.5032L248.093 13.6185L247.843 13.7529L247.612 13.8874L247.363 14.0218L247.113 14.1371L246.882 14.2715L246.633 14.406L246.402 14.5405L246.153 14.6749L245.922 14.8094L245.672 14.9631L245.442 15.0975L245.211 15.2512L245 15.3664L247.785 19.8804L247.958 19.7652L248.169 19.6307L248.361 19.5155L248.573 19.4002L248.784 19.2658L248.995 19.1505L249.226 19.0353L249.437 18.92L249.648 18.8048L249.86 18.6703L250.071 18.555L250.282 18.459L250.513 18.3438L250.724 18.2285L250.935 18.1132L251.166 18.0172L251.377 17.902L251.608 17.7867L251.819 17.6907L252.05 17.5946L252.165 17.537L249.956 12.7349L249.841 12.7733Z" fill="white"/>
<path d="M269.921 98.7563L268.164 95.4258L266.463 92.0953C267.682 89.7569 268.759 87.7302 269.964 85.4343L273.464 92.0953L271.664 95.4258L269.921 98.7563Z" fill="white"/>
<path d="M287.566 87.4041L287.396 87.5033L287.226 87.6167L287.041 87.7159L286.871 87.8293L286.687 87.9285L286.517 88.0277L286.347 88.1269L286.163 88.2261L285.978 88.3253L285.808 88.4104L285.624 88.5096L285.44 88.6088L285.27 88.708L285.086 88.793L284.901 88.8922L284.717 88.9773L284.533 89.0623L284.349 89.1473L284.164 89.2465L284.065 89.2891L282.435 85.7318L282.506 85.7034L282.676 85.6326L282.832 85.5476L283.002 85.4625L283.158 85.3917L283.314 85.3066L283.484 85.2216L283.64 85.1366L283.796 85.0657L283.952 84.9807L284.122 84.8815L284.278 84.7964L284.434 84.7114L284.59 84.6263L284.745 84.5413L284.901 84.4421L285.057 84.3571L285.213 84.272L285.369 84.1728L285.525 84.0736L285.667 83.9886L287.707 87.3191L287.566 87.4041Z" fill="white"/>
<path d="M279.942 90.8766L279.743 90.9333L279.545 90.99L279.346 91.0609L279.148 91.1176L278.95 91.1601L278.737 91.2168L278.539 91.2735L278.34 91.3302L278.142 91.3727L277.929 91.4294L277.731 91.486L277.532 91.5286L277.32 91.5711L277.121 91.6136L276.909 91.6703L276.71 91.7128L276.498 91.7412L276.299 91.7837L276.186 91.812L275.477 87.9713L275.562 87.9571L275.747 87.9146L275.931 87.8863L276.101 87.8437L276.285 87.8012L276.469 87.7587L276.654 87.7162L276.824 87.6737L277.008 87.6453L277.192 87.5886L277.362 87.5461L277.546 87.5036L277.731 87.4469L277.901 87.4044L278.071 87.3619L278.255 87.3052L278.425 87.2485L278.609 87.206L278.779 87.1493L278.964 87.0926L279.035 87.0643L280.211 90.7916L280.14 90.8058L279.942 90.8766Z" fill="white"/>
<path d="M263.756 91.8262L263.544 91.7836L263.331 91.7411L263.133 91.7128L262.92 91.6703L262.722 91.6136L262.509 91.5711L262.311 91.5285L262.098 91.486L261.9 91.4293L261.701 91.3726L261.503 91.3301L261.29 91.2734L261.092 91.2167L260.894 91.1601L260.695 91.1175L260.497 91.0609L260.298 90.99L260.086 90.9333L259.902 90.8766L259.817 90.8483L260.993 87.1209L261.05 87.1493L261.234 87.206L261.404 87.2485L261.574 87.3052L261.758 87.3619L261.942 87.4044L262.112 87.4469L262.297 87.5036L262.467 87.5461L262.651 87.5886L262.821 87.6453L263.005 87.6737L263.19 87.7162L263.374 87.7587L263.544 87.8012L263.728 87.8437L263.912 87.8862L264.097 87.9146L264.281 87.9571L264.451 87.9854L264.55 87.9996L263.841 91.8403L263.756 91.8262Z" fill="white"/>
<path d="M255.862 89.332L255.678 89.247L255.494 89.1478L255.31 89.0627L255.125 88.9777L254.941 88.8927L254.757 88.7935L254.573 88.7084L254.389 88.6092L254.218 88.51L254.034 88.4108L253.85 88.3258L253.68 88.2266L253.496 88.1274L253.326 88.0281L253.141 87.9289L252.971 87.8297L252.787 87.7164L252.617 87.6171L252.447 87.5038L252.291 87.4187L254.346 84.0882L254.474 84.1733L254.629 84.2725L254.771 84.3575L254.927 84.4425L255.083 84.5417L255.239 84.6268L255.409 84.7118L255.565 84.7968L255.721 84.8819L255.877 84.9811L256.033 85.0661L256.188 85.137L256.358 85.222L256.514 85.3071L256.67 85.3921L256.84 85.4629L256.996 85.548L257.166 85.633L257.322 85.7039L257.492 85.7747L257.577 85.8173L255.947 89.3604L255.862 89.332Z" fill="white"/>
</svg>
