<svg width="156" height="57" viewBox="0 0 156 57" fill="none" xmlns="http://www.w3.org/2000/svg">
<path d="M42.4997 30.1681C42.4997 30.7015 42.393 31.1601 42.1797 31.5441C41.9664 31.9175 41.689 32.2215 41.3477 32.4561C41.017 32.6908 40.6384 32.8615 40.2117 32.9681C39.7957 33.0748 39.3797 33.1281 38.9637 33.1281C38.537 33.1281 38.169 33.0855 37.8597 33.0001C37.5504 32.9148 37.2677 32.8348 37.0117 32.7601C36.841 32.7068 36.6864 32.6641 36.5477 32.6321C36.409 32.5895 36.2704 32.5681 36.1317 32.5681V30.7441H36.2917C36.2917 31.1495 36.393 31.4748 36.5957 31.7201C36.809 31.9548 37.0544 32.1361 37.3317 32.2641C37.609 32.3921 37.8864 32.4775 38.1637 32.5201C38.441 32.5521 38.6437 32.5681 38.7717 32.5681C39.2304 32.5681 39.625 32.5041 39.9557 32.3761C40.2864 32.2375 40.5584 32.0615 40.7717 31.8481C40.985 31.6241 41.1397 31.3788 41.2357 31.1121C41.3424 30.8455 41.3957 30.5735 41.3957 30.2961C41.3957 29.9441 41.321 29.6508 41.1717 29.4161C41.0224 29.1708 40.825 28.9575 40.5797 28.7761C40.345 28.5948 40.073 28.4401 39.7637 28.3121C39.4544 28.1841 39.1397 28.0561 38.8197 27.9281C38.457 27.7895 38.0997 27.6455 37.7477 27.4961C37.3957 27.3468 37.081 27.1655 36.8037 26.9521C36.5264 26.7281 36.3024 26.4668 36.1317 26.1681C35.961 25.8588 35.8757 25.4801 35.8757 25.0321C35.8757 24.5628 35.9664 24.1575 36.1477 23.8161C36.329 23.4641 36.569 23.1761 36.8677 22.9521C37.177 22.7281 37.5237 22.5628 37.9077 22.4561C38.3024 22.3388 38.7024 22.2801 39.1077 22.2801C39.385 22.2801 39.6464 22.3015 39.8917 22.3441C40.137 22.3761 40.3717 22.4188 40.5957 22.4721C40.777 22.5148 40.953 22.5521 41.1237 22.5841C41.2944 22.6055 41.4597 22.6161 41.6197 22.6161V24.2641H41.4597C41.4384 23.7095 41.2197 23.3361 40.8037 23.1441C40.3877 22.9415 39.8117 22.8401 39.0757 22.8401C38.649 22.8401 38.297 22.9148 38.0197 23.0641C37.753 23.2028 37.5397 23.3788 37.3797 23.5921C37.2197 23.7948 37.1077 24.0188 37.0437 24.2641C36.9904 24.4988 36.9637 24.7068 36.9637 24.8881C36.9637 25.1868 37.0277 25.4428 37.1557 25.6561C37.2944 25.8695 37.4757 26.0561 37.6997 26.2161C37.9237 26.3761 38.1797 26.5201 38.4677 26.6481C38.7664 26.7761 39.0757 26.8988 39.3957 27.0161C39.7584 27.1548 40.1264 27.3041 40.4997 27.4641C40.873 27.6241 41.2037 27.8215 41.4917 28.0561C41.7904 28.2908 42.0304 28.5788 42.2117 28.9201C42.4037 29.2615 42.4997 29.6775 42.4997 30.1681ZM44.5034 32.8401H44.5834C44.6688 32.8401 44.7434 32.8135 44.8074 32.7601C44.8714 32.6961 44.9248 32.6215 44.9674 32.5361C45.0208 32.4508 45.0581 32.3601 45.0794 32.2641C45.1114 32.1681 45.1274 32.0775 45.1274 31.9921V23.4321C45.1274 23.3575 45.1114 23.2721 45.0794 23.1761C45.0581 23.0801 45.0208 22.9895 44.9674 22.9041C44.9248 22.8188 44.8714 22.7495 44.8074 22.6961C44.7434 22.6321 44.6688 22.6001 44.5834 22.6001H44.5034V22.4401H50.6634V23.9281H50.5034C50.4821 23.6828 50.3861 23.4695 50.2154 23.2881C50.0448 23.0961 49.7781 23.0001 49.4154 23.0001H46.1994V27.0481H48.8554C49.1008 27.0481 49.3034 26.9735 49.4634 26.8241C49.6341 26.6748 49.7194 26.4988 49.7194 26.2961H49.8794V28.2961H49.7194C49.7194 28.1041 49.6394 27.9388 49.4794 27.8001C49.3194 27.6615 49.1114 27.5921 48.8554 27.5921H46.1994V32.4401H49.7034C49.9061 32.4401 50.0821 32.3921 50.2314 32.2961C50.3808 32.2001 50.5034 32.0881 50.5994 31.9601C50.7061 31.8215 50.7808 31.6775 50.8234 31.5281C50.8768 31.3681 50.9034 31.2348 50.9034 31.1281H51.0634V33.0001H44.5034V32.8401ZM54.5891 32.8401H54.6691V33.0001H52.8931V32.8401H52.9731C53.0477 32.8401 53.1171 32.8081 53.1811 32.7441C53.2557 32.6801 53.3144 32.6055 53.3571 32.5201C53.3997 32.4348 53.4317 32.3441 53.4531 32.2481C53.4851 32.1415 53.5011 32.0455 53.5011 31.9601V23.4321C53.5011 23.3575 53.4904 23.2721 53.4691 23.1761C53.4584 23.0801 53.4317 22.9895 53.3891 22.9041C53.3464 22.8188 53.2877 22.7495 53.2131 22.6961C53.1384 22.6321 53.0477 22.6001 52.9411 22.6001H52.8611V22.4401H54.4771L60.2851 31.5921V23.4321C60.2851 23.3575 60.2691 23.2721 60.2371 23.1761C60.2157 23.0801 60.1784 22.9895 60.1251 22.9041C60.0824 22.8188 60.0291 22.7495 59.9651 22.6961C59.9011 22.6321 59.8264 22.6001 59.7411 22.6001H59.6611V22.4401H61.4531V22.6001H61.3731C61.2877 22.6001 61.2131 22.6321 61.1491 22.6961C61.0851 22.7495 61.0264 22.8188 60.9731 22.9041C60.9304 22.9895 60.8984 23.0801 60.8771 23.1761C60.8557 23.2721 60.8451 23.3575 60.8451 23.4321V33.0001H59.8531L54.0611 23.8161V31.9601C54.0611 32.0455 54.0717 32.1415 54.0931 32.2481C54.1144 32.3441 54.1464 32.4348 54.1891 32.5201C54.2424 32.6055 54.3011 32.6801 54.3651 32.7441C54.4291 32.8081 54.5037 32.8401 54.5891 32.8401ZM63.5799 32.8401H63.6599C63.7346 32.8401 63.8039 32.8081 63.8679 32.7441C63.9319 32.6801 63.9853 32.6055 64.0279 32.5201C64.0813 32.4348 64.1186 32.3441 64.1399 32.2481C64.1613 32.1415 64.1719 32.0455 64.1719 31.9601V23.4321C64.1719 23.3575 64.1613 23.2721 64.1399 23.1761C64.1186 23.0801 64.0866 22.9895 64.0439 22.9041C64.0013 22.8188 63.9479 22.7495 63.8839 22.6961C63.8199 22.6321 63.7453 22.6001 63.6599 22.6001H63.5799V22.4401H66.6679C67.5106 22.4401 68.2679 22.5895 68.9399 22.8881C69.6119 23.1761 70.1773 23.5708 70.6359 24.0721C71.1053 24.5628 71.4626 25.1281 71.7079 25.7681C71.9533 26.4081 72.0759 27.0748 72.0759 27.7681C72.0759 28.4188 71.9586 29.0588 71.7239 29.6881C71.4893 30.3068 71.1373 30.8615 70.6679 31.3521C70.1986 31.8428 69.6119 32.2428 68.9079 32.5521C68.2039 32.8508 67.3879 33.0001 66.4599 33.0001H63.5799V32.8401ZM70.9879 28.0081C70.9879 27.3255 70.8653 26.6801 70.6199 26.0721C70.3746 25.4641 70.0279 24.9361 69.5799 24.4881C69.1426 24.0295 68.6199 23.6668 68.0119 23.4001C67.4146 23.1335 66.7639 23.0001 66.0599 23.0001H65.2439V32.4401H66.0919C66.6679 32.4401 67.2439 32.3548 67.8199 32.1841C68.4066 32.0028 68.9346 31.7308 69.4039 31.3681C69.8733 30.9948 70.2519 30.5308 70.5399 29.9761C70.8386 29.4215 70.9879 28.7655 70.9879 28.0081ZM78.8916 32.8401H78.9716C79.0569 32.8401 79.1316 32.8135 79.1956 32.7601C79.2596 32.6961 79.3129 32.6215 79.3556 32.5361C79.4089 32.4508 79.4462 32.3601 79.4676 32.2641C79.4996 32.1681 79.5156 32.0775 79.5156 31.9921V23.4321C79.5156 23.3575 79.4996 23.2721 79.4676 23.1761C79.4462 23.0801 79.4089 22.9895 79.3556 22.9041C79.3129 22.8188 79.2596 22.7495 79.1956 22.6961C79.1316 22.6321 79.0569 22.6001 78.9716 22.6001H78.8916V22.4401H85.0516V23.9281H84.8916C84.8702 23.6828 84.7742 23.4695 84.6036 23.2881C84.4329 23.0961 84.1662 23.0001 83.8036 23.0001H80.5876V27.0481H83.2436C83.4889 27.0481 83.6916 26.9735 83.8516 26.8241C84.0222 26.6748 84.1076 26.4988 84.1076 26.2961H84.2676V28.2961H84.1076C84.1076 28.1041 84.0276 27.9388 83.8676 27.8001C83.7076 27.6615 83.4996 27.5921 83.2436 27.5921H80.5876V32.4401H84.0916C84.2942 32.4401 84.4702 32.3921 84.6196 32.2961C84.7689 32.2001 84.8916 32.0881 84.9876 31.9601C85.0942 31.8215 85.1689 31.6775 85.2116 31.5281C85.2649 31.3681 85.2916 31.2348 85.2916 31.1281H85.4516V33.0001H78.8916V32.8401ZM95.9052 32.8401H95.9852C96.0599 32.8401 96.1292 32.8081 96.1932 32.7441C96.2572 32.6801 96.3105 32.6055 96.3532 32.5201C96.4065 32.4348 96.4439 32.3441 96.4652 32.2481C96.4865 32.1415 96.4972 32.0455 96.4972 31.9601V23.5441L92.3692 33.1761L88.4492 24.0401V31.9601C88.4492 32.0455 88.4599 32.1415 88.4812 32.2481C88.5025 32.3441 88.5345 32.4348 88.5772 32.5201C88.6305 32.6055 88.6892 32.6801 88.7532 32.7441C88.8172 32.8081 88.8919 32.8401 88.9772 32.8401H89.0572V33.0001H87.3132V32.8401H87.3932C87.4679 32.8401 87.5372 32.8081 87.6012 32.7441C87.6652 32.6801 87.7185 32.6055 87.7612 32.5201C87.8039 32.4348 87.8359 32.3441 87.8572 32.2481C87.8785 32.1415 87.8892 32.0455 87.8892 31.9601V23.4321C87.8892 23.3575 87.8785 23.2721 87.8572 23.1761C87.8359 23.0801 87.8039 22.9895 87.7612 22.9041C87.7185 22.8188 87.6652 22.7495 87.6012 22.6961C87.5372 22.6321 87.4679 22.6001 87.3932 22.6001H87.3132V22.4401H88.9452L92.6572 31.1921L96.3692 22.4401H98.1772V22.6001H98.0972C98.0119 22.6001 97.9372 22.6321 97.8732 22.6961C97.8092 22.7495 97.7505 22.8188 97.6972 22.9041C97.6545 22.9895 97.6225 23.0801 97.6012 23.1761C97.5799 23.2721 97.5692 23.3575 97.5692 23.4321V31.9601C97.5692 32.0455 97.5799 32.1415 97.6012 32.2481C97.6225 32.3441 97.6545 32.4348 97.6972 32.5201C97.7505 32.6055 97.8092 32.6801 97.8732 32.7441C97.9372 32.8081 98.0119 32.8401 98.0972 32.8401H98.1772V33.0001H95.9052V32.8401ZM106.487 32.8401H106.567C106.823 32.8401 106.951 32.7228 106.951 32.4881C106.951 32.4028 106.935 32.3121 106.903 32.2161L105.463 28.3281H102.663L101.271 32.1521C101.239 32.2375 101.223 32.3175 101.223 32.3921C101.223 32.5308 101.26 32.6428 101.335 32.7281C101.409 32.8028 101.489 32.8401 101.575 32.8401H101.655V33.0001H99.8787V32.8401H99.9587C100.097 32.8401 100.231 32.7601 100.359 32.6001C100.497 32.4295 100.609 32.2321 100.695 32.0081L104.359 22.2481L107.943 31.9121C108.017 32.1255 108.119 32.3335 108.247 32.5361C108.385 32.7388 108.561 32.8401 108.775 32.8401H108.855V33.0001H106.487V32.8401ZM102.823 27.7841H105.287L104.055 24.4401L102.823 27.7841ZM110.516 22.4401H112.804V22.6001H112.724C112.65 22.6001 112.58 22.6321 112.516 22.6961C112.452 22.7495 112.399 22.8188 112.356 22.9041C112.314 22.9788 112.276 23.0695 112.244 23.1761C112.223 23.2721 112.212 23.3575 112.212 23.4321V31.9601C112.212 32.0455 112.223 32.1415 112.244 32.2481C112.266 32.3441 112.298 32.4348 112.34 32.5201C112.394 32.6055 112.447 32.6801 112.5 32.7441C112.564 32.8081 112.639 32.8401 112.724 32.8401H112.804V33.0001H110.516V32.8401H110.596C110.682 32.8401 110.756 32.8135 110.82 32.7601C110.884 32.6961 110.938 32.6215 110.98 32.5361C111.034 32.4401 111.071 32.3441 111.092 32.2481C111.114 32.1415 111.124 32.0455 111.124 31.9601V23.4321C111.124 23.3575 111.114 23.2721 111.092 23.1761C111.071 23.0801 111.034 22.9895 110.98 22.9041C110.938 22.8188 110.884 22.7495 110.82 22.6961C110.756 22.6321 110.682 22.6001 110.596 22.6001H110.516V22.4401ZM114.983 32.8401H115.063C115.148 32.8401 115.223 32.8135 115.287 32.7601C115.351 32.6961 115.404 32.6215 115.447 32.5361C115.5 32.4508 115.537 32.3601 115.559 32.2641C115.591 32.1681 115.607 32.0775 115.607 31.9921V23.4321C115.607 23.3575 115.591 23.2721 115.559 23.1761C115.537 23.0801 115.5 22.9895 115.447 22.9041C115.404 22.8188 115.351 22.7495 115.287 22.6961C115.223 22.6321 115.148 22.6001 115.063 22.6001H114.983V22.4401H117.287V22.6001H117.207C117.121 22.6001 117.047 22.6321 116.983 22.6961C116.919 22.7495 116.865 22.8188 116.823 22.9041C116.78 22.9895 116.743 23.0801 116.711 23.1761C116.689 23.2721 116.679 23.3575 116.679 23.4321V32.4081H120.183C120.385 32.4081 120.561 32.3601 120.711 32.2641C120.86 32.1681 120.983 32.0508 121.079 31.9121C121.185 31.7628 121.26 31.6081 121.303 31.4481C121.356 31.2775 121.383 31.1228 121.383 30.9841H121.543V33.0001H114.983V32.8401Z" fill="white"/>
<path fill-rule="evenodd" clip-rule="evenodd" d="M61 8.00012H20C8.95431 8.00012 0 16.9544 0 28.0001C0 39.0458 8.9543 48.0001 20 48.0001H61V47.0001H20C9.50659 47.0001 1 38.4935 1 28.0001C1 17.5067 9.50659 9.00012 20 9.00012H61V8.00012ZM95 47.0001H136C146.493 47.0001 155 38.4935 155 28.0001C155 17.5067 146.493 9.00012 136 9.00012H95V8.00012H136C147.046 8.00012 156 16.9544 156 28.0001C156 39.0458 147.046 48.0001 136 48.0001H95V47.0001Z" fill="black"/>
<path d="M77.9506 0.416992L76.859 2.4859L75.8025 4.55481C76.5596 6.00745 77.2287 7.2664 77.977 8.69263L80.1516 4.55481L79.0335 2.4859L77.9506 0.416992Z" fill="black"/>
<path d="M88.9114 7.46892L88.8057 7.40729L88.7001 7.33686L88.5856 7.27523L88.48 7.2048L88.3655 7.14318L88.2599 7.08155L88.1542 7.01992L88.0398 6.95829L87.9253 6.89667L87.8197 6.84384L87.7052 6.78222L87.5908 6.72059L87.4851 6.65896L87.3707 6.60614L87.2562 6.54451L87.1418 6.49169L87.0273 6.43887L86.9129 6.38604L86.7984 6.32442L86.7368 6.298L85.7244 8.50777L85.7684 8.52538L85.874 8.5694L85.9709 8.62223L86.0765 8.67505L86.1734 8.71907L86.2702 8.77189L86.3759 8.82471L86.4727 8.87754L86.5695 8.92156L86.6664 8.97438L86.772 9.03601L86.8689 9.08883L86.9657 9.14165L87.0626 9.19448L87.1594 9.2473L87.2562 9.30893L87.3531 9.36175L87.4499 9.41457L87.5468 9.4762L87.6436 9.53783L87.7316 9.59065L88.9994 7.52174L88.9114 7.46892Z" fill="black"/>
<path d="M84.1753 5.31189L84.0521 5.27667L83.9288 5.24146L83.8056 5.19744L83.6823 5.16222L83.559 5.13581L83.427 5.1006L83.3037 5.06538L83.1805 5.03017L83.0572 5.00375L82.9252 4.96854L82.8019 4.93332L82.6787 4.90691L82.5466 4.8805L82.4233 4.85409L82.2913 4.81887L82.168 4.79246L82.036 4.77485L81.9127 4.74844L81.8423 4.73083L81.4021 7.11668L81.4549 7.12549L81.5694 7.1519L81.6838 7.16951L81.7895 7.19592L81.9039 7.22233L82.0184 7.24874L82.1328 7.27515L82.2385 7.30156L82.3529 7.31917L82.4674 7.35439L82.573 7.3808L82.6875 7.40721L82.8019 7.44243L82.9076 7.46884L83.0132 7.49525L83.1277 7.53046L83.2333 7.56568L83.3478 7.59209L83.4534 7.62731L83.5679 7.66252L83.6119 7.68013L84.3426 5.36471L84.2986 5.35591L84.1753 5.31189Z" fill="black"/>
<path d="M74.1213 4.72206L73.9892 4.74847L73.8572 4.77488L73.7339 4.79249L73.6019 4.8189L73.4786 4.85412L73.3466 4.88053L73.2233 4.90694L73.0913 4.93335L72.968 4.96857L72.8447 5.00378L72.7215 5.0302L72.5894 5.06541L72.4662 5.10063L72.3429 5.13584L72.2197 5.16225L72.0964 5.19747L71.9732 5.24149L71.8411 5.2767L71.7267 5.31192L71.6738 5.32953L72.4045 7.64494L72.4398 7.62734L72.5542 7.59212L72.6599 7.56571L72.7655 7.53049L72.88 7.49528L72.9944 7.46887L73.1001 7.44246L73.2145 7.40724L73.3202 7.38083L73.4346 7.35442L73.5402 7.3192L73.6547 7.30159L73.7691 7.27518L73.8836 7.24877L73.9892 7.22236L74.1037 7.19595L74.2181 7.16954L74.3326 7.15193L74.447 7.12552L74.5527 7.10791L74.6143 7.0991L74.1741 4.71326L74.1213 4.72206Z" fill="black"/>
<path d="M69.2176 6.27151L69.1031 6.32434L68.9887 6.38596L68.8742 6.43879L68.7598 6.49161L68.6453 6.54443L68.5309 6.60606L68.4164 6.65888L68.302 6.72051L68.1963 6.78214L68.0819 6.84377L67.9674 6.89659L67.8618 6.95822L67.7474 7.01984L67.6417 7.08147L67.5273 7.1431L67.4216 7.20472L67.3072 7.27515L67.2015 7.33678L67.0959 7.40721L66.999 7.46004L68.2756 9.52894L68.3548 9.47612L68.4517 9.41449L68.5397 9.36167L68.6365 9.30885L68.7334 9.24722L68.8302 9.1944L68.9359 9.14157L69.0327 9.08875L69.1296 9.03593L69.2264 8.9743L69.3232 8.92148L69.4201 8.87746L69.5257 8.82464L69.6226 8.77181L69.7194 8.71899L69.8251 8.67497L69.9219 8.62215L70.0276 8.56932L70.1244 8.5253L70.23 8.48128L70.2829 8.45487L69.2704 6.25391L69.2176 6.27151Z" fill="black"/>
<path d="M77.9506 56.1738L76.859 54.1049L75.8025 52.036C76.5596 50.5834 77.2287 49.3244 77.977 47.8982L80.1516 52.036L79.0335 54.1049L77.9506 56.1738Z" fill="black"/>
<path d="M88.9114 49.1219L88.8057 49.1835L88.7001 49.2539L88.5856 49.3156L88.48 49.386L88.3655 49.4476L88.2599 49.5092L88.1542 49.5709L88.0398 49.6325L87.9253 49.6941L87.8197 49.7469L87.7052 49.8086L87.5908 49.8702L87.4851 49.9318L87.3707 49.9846L87.2562 50.0463L87.1418 50.0991L87.0273 50.1519L86.9129 50.2047L86.7984 50.2664L86.7368 50.2928L85.7244 48.083L85.7684 48.0654L85.874 48.0214L85.9709 47.9686L86.0765 47.9157L86.1734 47.8717L86.2702 47.8189L86.3759 47.7661L86.4727 47.7133L86.5695 47.6692L86.6664 47.6164L86.772 47.5548L86.8689 47.502L86.9657 47.4491L87.0626 47.3963L87.1594 47.3435L87.2562 47.2819L87.3531 47.229L87.4499 47.1762L87.5468 47.1146L87.6436 47.053L87.7316 47.0001L88.9994 49.069L88.9114 49.1219Z" fill="black"/>
<path d="M84.1753 51.2789L84.0521 51.3141L83.9288 51.3494L83.8056 51.3934L83.6823 51.4286L83.559 51.455L83.427 51.4902L83.3037 51.5254L83.1805 51.5607L83.0572 51.5871L82.9252 51.6223L82.8019 51.6575L82.6787 51.6839L82.5466 51.7103L82.4233 51.7367L82.2913 51.7719L82.168 51.7984L82.036 51.816L81.9127 51.8424L81.8423 51.86L81.4021 49.4741L81.4549 49.4653L81.5694 49.4389L81.6838 49.4213L81.7895 49.3949L81.9039 49.3685L82.0184 49.3421L82.1328 49.3157L82.2385 49.2893L82.3529 49.2716L82.4674 49.2364L82.573 49.21L82.6875 49.1836L82.8019 49.1484L82.9076 49.122L83.0132 49.0956L83.1277 49.0604L83.2333 49.0251L83.3478 48.9987L83.4534 48.9635L83.5679 48.9283L83.6119 48.9107L84.3426 51.2261L84.2986 51.2349L84.1753 51.2789Z" fill="black"/>
<path d="M74.1213 51.8688L73.9892 51.8423L73.8572 51.8159L73.7339 51.7983L73.6019 51.7719L73.4786 51.7367L73.3466 51.7103L73.2233 51.6839L73.0913 51.6575L72.968 51.6223L72.8447 51.587L72.7215 51.5606L72.5894 51.5254L72.4662 51.4902L72.3429 51.455L72.2197 51.4286L72.0964 51.3934L71.9732 51.3493L71.8411 51.3141L71.7267 51.2789L71.6738 51.2613L72.4045 48.9459L72.4398 48.9635L72.5542 48.9987L72.6599 49.0251L72.7655 49.0603L72.88 49.0955L72.9944 49.122L73.1001 49.1484L73.2145 49.1836L73.3202 49.21L73.4346 49.2364L73.5402 49.2716L73.6547 49.2892L73.7691 49.3156L73.8836 49.342L73.9892 49.3685L74.1037 49.3949L74.2181 49.4213L74.3326 49.4389L74.447 49.4653L74.5527 49.4829L74.6143 49.4917L74.1741 51.8776L74.1213 51.8688Z" fill="black"/>
<path d="M69.2176 50.3193L69.1031 50.2665L68.9887 50.2049L68.8742 50.152L68.7598 50.0992L68.6453 50.0464L68.5309 49.9848L68.4164 49.9319L68.302 49.8703L68.1963 49.8087L68.0819 49.7471L67.9674 49.6942L67.8618 49.6326L67.7474 49.571L67.6417 49.5094L67.5273 49.4477L67.4216 49.3861L67.3072 49.3157L67.2015 49.254L67.0959 49.1836L66.999 49.1308L68.2756 47.0619L68.3548 47.1147L68.4517 47.1763L68.5397 47.2291L68.6365 47.282L68.7334 47.3436L68.8302 47.3964L68.9359 47.4492L69.0327 47.5021L69.1296 47.5549L69.2264 47.6165L69.3232 47.6693L69.4201 47.7134L69.5257 47.7662L69.6226 47.819L69.7194 47.8718L69.8251 47.9159L69.9219 47.9687L70.0276 48.0215L70.1244 48.0655L70.23 48.1095L70.2829 48.1359L69.2704 50.3369L69.2176 50.3193Z" fill="black"/>
</svg>
