<svg width="135" height="257" viewBox="0 0 135 257" fill="none" xmlns="http://www.w3.org/2000/svg">
<g filter="url(#filter0_b_6_68694)">
<path d="M67.5 244C45.2106 201.486 29.7794 172.243 6.99999 128.5L37.3725 70.75L67.5 13L97.8725 70.75L128 128.5L67.5 244Z" fill="#919191" fill-opacity="0.14"/>
</g>
<path d="M34.3289 64.4832L34.3297 64.4818L67.5018 1.07519L100.944 64.4818L100.944 64.4832L134.435 128.5L67.4998 255.925C60.4084 242.438 53.936 230.146 47.7112 218.323C32.3497 189.148 18.4957 162.835 0.564684 128.501L34.3289 64.4832Z" stroke="#79655E"/>
<path d="M45.6065 142.033C46.3625 142.033 47.0135 142.166 47.5595 142.432C48.1195 142.684 48.5815 143.02 48.9455 143.44C49.3235 143.86 49.6035 144.343 49.7855 144.889C49.9675 145.435 50.0585 145.995 50.0585 146.569C50.0585 147.129 49.9675 147.682 49.7855 148.228C49.6175 148.774 49.3515 149.264 48.9875 149.698C48.6375 150.132 48.1965 150.482 47.6645 150.748C47.1325 151.014 46.5025 151.147 45.7745 151.147C45.3405 151.147 44.8925 151.035 44.4305 150.811C43.9825 150.573 43.5765 150.279 43.2125 149.929V154.045C43.2125 154.157 43.2265 154.276 43.2545 154.402C43.2825 154.542 43.3245 154.668 43.3805 154.78C43.4505 154.892 43.5205 154.99 43.5905 155.074C43.6745 155.158 43.7725 155.2 43.8845 155.2V155.41H41.1545V155.2C41.2525 155.2 41.3435 155.158 41.4275 155.074C41.5115 154.99 41.5815 154.892 41.6375 154.78C41.7075 154.668 41.7565 154.542 41.7845 154.402C41.8125 154.276 41.8265 154.157 41.8265 154.045V143.419C41.8265 143.293 41.8195 143.174 41.8055 143.062C41.8055 142.936 41.7845 142.831 41.7425 142.747C41.7005 142.649 41.6305 142.572 41.5325 142.516C41.4485 142.446 41.3225 142.404 41.1545 142.39V142.18H43.2125V143.104C43.4925 142.768 43.8285 142.509 44.2205 142.327C44.6265 142.131 45.0885 142.033 45.6065 142.033ZM45.7955 150.433C46.2855 150.419 46.7125 150.307 47.0765 150.097C47.4405 149.887 47.7415 149.614 47.9795 149.278C48.2175 148.942 48.3925 148.571 48.5045 148.165C48.6165 147.745 48.6725 147.311 48.6725 146.863C48.6725 146.359 48.6025 145.862 48.4625 145.372C48.3225 144.882 48.1195 144.448 47.8535 144.07C47.5875 143.678 47.2585 143.363 46.8665 143.125C46.4885 142.873 46.0545 142.747 45.5645 142.747C45.2705 142.747 44.9765 142.803 44.6825 142.915C44.4025 143.027 44.1505 143.188 43.9265 143.398C43.7165 143.608 43.5415 143.86 43.4015 144.154C43.2755 144.434 43.2125 144.749 43.2125 145.099V147.85C43.2125 148.228 43.2895 148.578 43.4435 148.9C43.5975 149.208 43.7935 149.481 44.0315 149.719C44.2835 149.943 44.5635 150.118 44.8715 150.244C45.1795 150.37 45.4875 150.433 45.7955 150.433ZM52.0251 151V150.79C52.1371 150.79 52.2351 150.748 52.3191 150.664C52.4031 150.58 52.4731 150.482 52.5291 150.37C52.5991 150.258 52.6481 150.139 52.6761 150.013C52.7041 149.873 52.7181 149.747 52.7181 149.635V138.883C52.7181 138.645 52.6831 138.421 52.6131 138.211C52.5431 138.001 52.3331 137.889 51.9831 137.875V137.665L54.1041 137.014V149.635C54.1041 149.747 54.1181 149.873 54.1461 150.013C54.1741 150.139 54.2161 150.258 54.2721 150.37C54.3421 150.482 54.4121 150.58 54.4821 150.664C54.5661 150.748 54.6641 150.79 54.7761 150.79V151H52.0251ZM62.3454 151V149.929L62.2404 150.034C61.8904 150.384 61.4844 150.657 61.0224 150.853C60.5744 151.049 60.0284 151.147 59.3844 151.147C58.8944 151.147 58.4744 151.091 58.1244 150.979C57.7744 150.867 57.4874 150.713 57.2634 150.517C57.0394 150.307 56.8714 150.069 56.7594 149.803C56.6614 149.537 56.6124 149.257 56.6124 148.963C56.6124 148.487 56.7384 148.067 56.9904 147.703C57.2564 147.339 57.6344 147.017 58.1244 146.737C58.6144 146.457 59.2094 146.205 59.9094 145.981C60.6234 145.743 61.4354 145.512 62.3454 145.288C62.3174 144.742 62.2054 144.301 62.0094 143.965C61.8134 143.629 61.5824 143.37 61.3164 143.188C61.0504 142.992 60.7704 142.866 60.4764 142.81C60.1824 142.74 59.9304 142.705 59.7204 142.705C59.3564 142.705 59.0344 142.761 58.7544 142.873C58.4884 142.985 58.2504 143.132 58.0404 143.314C57.8444 143.482 57.6764 143.671 57.5364 143.881C57.3964 144.077 57.2844 144.266 57.2004 144.448H57.0114V142.915C57.1234 142.901 57.2284 142.866 57.3264 142.81C57.4244 142.754 57.5434 142.698 57.6834 142.642C57.8934 142.558 58.1804 142.439 58.5444 142.285C58.9084 142.117 59.4194 142.033 60.0774 142.033C60.8474 142.033 61.4704 142.131 61.9464 142.327C62.4224 142.523 62.7864 142.782 63.0384 143.104C63.3044 143.426 63.4794 143.797 63.5634 144.217C63.6474 144.623 63.6894 145.043 63.6894 145.477V149.635C63.6894 149.915 63.7524 150.181 63.8784 150.433C64.0044 150.671 64.1724 150.79 64.3824 150.79V151H62.3454ZM62.3454 149.005V146.002L62.1354 146.044C61.7994 146.128 61.3864 146.24 60.8964 146.38C60.4204 146.52 59.9654 146.702 59.5314 146.926C59.0974 147.15 58.7264 147.416 58.4184 147.724C58.1104 148.032 57.9564 148.389 57.9564 148.795C57.9564 149.243 58.1384 149.614 58.5024 149.908C58.8664 150.202 59.3424 150.349 59.9304 150.349C60.3924 150.349 60.7984 150.251 61.1484 150.055C61.4984 149.845 61.8204 149.579 62.1144 149.257L62.3454 149.005ZM74.1481 150.244C74.0361 150.244 73.9311 150.272 73.8331 150.328C73.7351 150.37 73.6231 150.426 73.4971 150.496C73.2591 150.636 72.9581 150.783 72.5941 150.937C72.2301 151.077 71.7541 151.147 71.1661 151.147C70.4521 151.147 69.7871 151.035 69.1711 150.811C68.5691 150.573 68.0441 150.251 67.5961 149.845C67.1621 149.425 66.8191 148.942 66.5671 148.396C66.3291 147.836 66.2101 147.234 66.2101 146.59C66.2101 145.988 66.3151 145.414 66.5251 144.868C66.7491 144.322 67.0641 143.839 67.4701 143.419C67.8761 142.999 68.3731 142.663 68.9611 142.411C69.5631 142.159 70.2421 142.033 70.9981 142.033C71.5161 142.033 71.9361 142.096 72.2581 142.222C72.5801 142.334 72.8531 142.446 73.0771 142.558C73.2031 142.628 73.3221 142.684 73.4341 142.726C73.5601 142.768 73.6861 142.789 73.8121 142.789V144.385H73.6021C73.5321 144.119 73.4061 143.888 73.2241 143.692C73.0421 143.482 72.8321 143.307 72.5941 143.167C72.3561 143.027 72.0971 142.922 71.8171 142.852C71.5371 142.782 71.2641 142.747 70.9981 142.747C70.4241 142.747 69.9201 142.852 69.4861 143.062C69.0521 143.258 68.6951 143.524 68.4151 143.86C68.1351 144.182 67.9251 144.553 67.7851 144.973C67.6451 145.393 67.5751 145.827 67.5751 146.275C67.5751 146.793 67.6591 147.304 67.8271 147.808C67.9951 148.298 68.2331 148.739 68.5411 149.131C68.8631 149.523 69.2481 149.838 69.6961 150.076C70.1441 150.314 70.6481 150.433 71.2081 150.433C71.6001 150.433 71.9571 150.377 72.2791 150.265C72.6151 150.153 72.8951 150.006 73.1191 149.824C73.3571 149.642 73.5461 149.446 73.6861 149.236C73.8261 149.012 73.9101 148.802 73.9381 148.606H74.1481V150.244ZM76.7006 146.758C76.7566 147.248 76.8756 147.717 77.0576 148.165C77.2396 148.599 77.4776 148.984 77.7716 149.32C78.0796 149.656 78.4506 149.929 78.8846 150.139C79.3186 150.335 79.8226 150.433 80.3966 150.433C80.7046 150.433 81.0266 150.391 81.3626 150.307C81.7126 150.209 82.0346 150.076 82.3286 149.908C82.6226 149.74 82.8816 149.537 83.1056 149.299C83.3436 149.047 83.5046 148.767 83.5886 148.459H83.7776V150.034C83.6936 150.034 83.5956 150.062 83.4836 150.118C83.3856 150.174 83.2666 150.244 83.1266 150.328C82.8466 150.496 82.4686 150.678 81.9926 150.874C81.5166 151.056 80.8866 151.147 80.1026 151.147C79.4726 151.147 78.8706 151.056 78.2966 150.874C77.7366 150.692 77.2396 150.412 76.8056 150.034C76.3716 149.656 76.0216 149.173 75.7556 148.585C75.5036 147.997 75.3776 147.297 75.3776 146.485C75.3776 145.967 75.4616 145.442 75.6296 144.91C75.8116 144.378 76.0776 143.902 76.4276 143.482C76.7916 143.048 77.2536 142.698 77.8136 142.432C78.3736 142.166 79.0456 142.033 79.8296 142.033C80.5296 142.033 81.1386 142.152 81.6566 142.39C82.1886 142.628 82.6226 142.957 82.9586 143.377C83.3086 143.797 83.5676 144.294 83.7356 144.868C83.9036 145.442 83.9876 146.072 83.9876 146.758H76.7006ZM79.7456 142.726C79.2556 142.726 78.8286 142.824 78.4646 143.02C78.1146 143.216 77.8136 143.468 77.5616 143.776C77.3096 144.084 77.1136 144.434 76.9736 144.826C76.8336 145.218 76.7426 145.61 76.7006 146.002H82.6856C82.6716 145.596 82.5946 145.197 82.4546 144.805C82.3286 144.413 82.1466 144.063 81.9086 143.755C81.6706 143.447 81.3696 143.202 81.0056 143.02C80.6416 142.824 80.2216 142.726 79.7456 142.726ZM91.9477 148.606C91.9477 148.97 91.8567 149.306 91.6747 149.614C91.4927 149.922 91.2407 150.195 90.9187 150.433C90.6107 150.657 90.2467 150.839 89.8267 150.979C89.4067 151.105 88.9517 151.168 88.4617 151.168C87.8597 151.168 87.3697 151.091 86.9917 150.937C86.6137 150.769 86.2917 150.601 86.0257 150.433C85.8437 150.321 85.6757 150.23 85.5217 150.16C85.3677 150.076 85.1997 150.034 85.0177 150.034V148.438H85.2277C85.2697 148.634 85.3887 148.851 85.5847 149.089C85.7947 149.313 86.0397 149.523 86.3197 149.719C86.6137 149.915 86.9287 150.083 87.2647 150.223C87.6147 150.349 87.9647 150.412 88.3147 150.412C88.5667 150.412 88.8257 150.384 89.0917 150.328C89.3577 150.272 89.5957 150.181 89.8057 150.055C90.0297 149.929 90.2117 149.775 90.3517 149.593C90.5057 149.397 90.5827 149.166 90.5827 148.9C90.5827 148.634 90.5057 148.403 90.3517 148.207C90.1977 148.011 90.0017 147.843 89.7637 147.703C89.5257 147.549 89.2527 147.416 88.9447 147.304C88.6367 147.192 88.3287 147.087 88.0207 146.989C87.6567 146.877 87.2857 146.751 86.9077 146.611C86.5437 146.471 86.2147 146.31 85.9207 146.128C85.6267 145.932 85.3887 145.701 85.2067 145.435C85.0247 145.155 84.9337 144.826 84.9337 144.448C84.9337 144.126 84.9897 143.818 85.1017 143.524C85.2277 143.23 85.4237 142.978 85.6897 142.768C85.9697 142.544 86.3267 142.369 86.7607 142.243C87.1947 142.103 87.7197 142.033 88.3357 142.033C88.8817 142.033 89.3017 142.082 89.5957 142.18C89.9037 142.264 90.1557 142.355 90.3517 142.453C90.4777 142.523 90.6037 142.579 90.7297 142.621C90.8557 142.649 90.9957 142.663 91.1497 142.663V144.133H90.9817C90.7297 143.671 90.3447 143.321 89.8267 143.083C89.3087 142.845 88.7767 142.726 88.2307 142.726C87.8807 142.726 87.5797 142.775 87.3277 142.873C87.0757 142.957 86.8657 143.069 86.6977 143.209C86.5437 143.335 86.4247 143.482 86.3407 143.65C86.2707 143.818 86.2357 143.986 86.2357 144.154C86.2357 144.392 86.2987 144.595 86.4247 144.763C86.5647 144.931 86.7467 145.078 86.9707 145.204C87.2087 145.33 87.4677 145.449 87.7477 145.561C88.0417 145.673 88.3497 145.778 88.6717 145.876C89.0637 146.002 89.4557 146.142 89.8477 146.296C90.2397 146.436 90.5897 146.611 90.8977 146.821C91.2057 147.031 91.4577 147.283 91.6537 147.577C91.8497 147.857 91.9477 148.2 91.9477 148.606Z" fill="white"/>
<path d="M52.1973 110.14H52.5123C52.699 110.14 52.8973 110.105 53.1073 110.035C53.3173 109.965 53.5506 109.883 53.8073 109.79C54.204 109.65 54.6823 109.51 55.2423 109.37C55.8023 109.207 56.4906 109.125 57.3073 109.125C58.2406 109.125 59.069 109.265 59.7923 109.545C60.539 109.802 61.1573 110.163 61.6473 110.63C62.1606 111.073 62.5456 111.598 62.8023 112.205C63.0823 112.812 63.2223 113.442 63.2223 114.095C63.2223 115.005 62.9423 115.88 62.3823 116.72C61.8456 117.56 61.0056 118.237 59.8623 118.75C61.4723 119.217 62.674 119.963 63.4673 120.99C64.2606 122.017 64.6573 123.183 64.6573 124.49C64.6573 125.47 64.4706 126.38 64.0973 127.22C63.7473 128.037 63.2223 128.76 62.5223 129.39C61.8456 129.997 61.029 130.475 60.0723 130.825C59.1156 131.175 58.0423 131.35 56.8523 131.35C55.9656 131.35 55.2306 131.268 54.6473 131.105C54.064 130.942 53.574 130.79 53.1773 130.65C52.9206 130.557 52.6873 130.487 52.4773 130.44C52.2673 130.37 52.0573 130.335 51.8473 130.335H51.5323V127.64H51.8823C52.489 128.48 53.2356 129.122 54.1223 129.565C55.0323 129.985 55.9656 130.195 56.9223 130.195C57.7623 130.195 58.5206 130.055 59.1973 129.775C59.874 129.472 60.4456 129.075 60.9123 128.585C61.4023 128.095 61.764 127.535 61.9973 126.905C62.254 126.275 62.3823 125.622 62.3823 124.945C62.3823 124.245 62.2423 123.568 61.9623 122.915C61.6823 122.238 61.2856 121.643 60.7723 121.13C60.259 120.617 59.629 120.208 58.8823 119.905C58.159 119.602 57.3306 119.45 56.3973 119.45H54.7873V118.295H56.5723C57.2956 118.295 57.9256 118.178 58.4623 117.945C59.0223 117.712 59.489 117.397 59.8623 117C60.2356 116.603 60.5156 116.16 60.7023 115.67C60.889 115.18 60.9823 114.667 60.9823 114.13C60.9823 113.64 60.889 113.162 60.7023 112.695C60.539 112.228 60.2823 111.82 59.9323 111.47C59.5823 111.097 59.1506 110.793 58.6373 110.56C58.1473 110.327 57.5756 110.21 56.9223 110.21C56.129 110.21 55.3356 110.432 54.5423 110.875C53.749 111.318 53.084 111.983 52.5473 112.87H52.1973V110.14ZM74.4504 131V130.65C74.7771 130.65 75.0221 130.603 75.1854 130.51C75.3721 130.393 75.5004 130.253 75.5705 130.09C75.6638 129.903 75.7104 129.705 75.7104 129.495C75.7338 129.262 75.7455 129.028 75.7455 128.795V125.365H66.1904L78.0204 108.6V123.615H80.1554V125.365H78.0204V128.795C78.0204 129.262 78.1021 129.693 78.2654 130.09C78.4521 130.463 78.8254 130.65 79.3855 130.65V131H74.4504ZM75.7455 113.815C74.5788 115.472 73.4121 117.105 72.2454 118.715C71.1021 120.325 69.9471 121.958 68.7804 123.615H75.7455V113.815Z" fill="white"/>
<path d="M62 167H74M74 167L70.5 164M74 167L70.5 170" stroke="white"/>
<defs>
<filter id="filter0_b_6_68694" x="-13" y="-7" width="161" height="271" filterUnits="userSpaceOnUse" color-interpolation-filters="sRGB">
<feFlood flood-opacity="0" result="BackgroundImageFix"/>
<feGaussianBlur in="BackgroundImageFix" stdDeviation="10"/>
<feComposite in2="SourceAlpha" operator="in" result="effect1_backgroundBlur_6_68694"/>
<feBlend mode="normal" in="SourceGraphic" in2="effect1_backgroundBlur_6_68694" result="shape"/>
</filter>
</defs>
</svg>
